# xmcd
#
# Track frame offsets:
#	150
#	11732
#	25587
#	36117
#	51097
#	70720
#	85902
#	107502
#	123527
#	145302
#
# Disc length: 2201 seconds
#
# Revision: 5
# Processed by: cddbd v1.5.2PL0 Copyright (c) Steve Scherf et al.
# Submitted via: dBpowerAMP V4.0
#
DISCID=7d08970a
DTITLE=Willie Nelson - Super Hits
DYEAR=1994
DGENRE=Country
TTITLE0=On the Road Again
TTITLE1=My Heroes Have Always Been Cowboys
TTITLE2=Blue Eyes Crying in the Rain
TTITLE3=Nothing I Can do About it Now
TTITLE4=Georgia on My Mind
TTITLE5=Living in the Promiseland
TTITLE6=Poncho and Lefty (with Merle Haggard)
TTITLE7=Always on my Mind
TTITLE8=City of New Orleans
TTITLE9=Angel Flying Too Close to the Ground
EXTD=
EXTT0=
EXTT1=
EXTT2=
EXTT3=
EXTT4=
EXTT5=
EXTT6=
EXTT7=
EXTT8=
EXTT9=
PLAYORDER=
